<svg xmlns="http://www.w3.org/2000/svg" data-name="Layer 1" viewBox="0 0 100 100" x="0px" y="0px"><title>icons_animals_3</title><path fill="#CF63CF" d="M9,41c6,2.57,11.17,0,15.31-2,3.86-1.89,6-2.79,7.64-.87,1.41,1.6.49,3.16-1.56,6.25-2.8,4.23-7,10.62-3.26,21,4.63,12.77,13.12,14.52,17.42,14.52.45,0,.85,0,1.2,0,0,.15,0,.3,0,.43a1,1,0,0,0,1,.93c.27,0,26.91.65,33.23.65a1,1,0,0,0,1-1.27,6.2,6.2,0,0,0-.83-1.78H85.6a1,1,0,0,0,1-1,4.77,4.77,0,0,0-1.66-3.53C82.6,72.16,78,71.4,73.77,71.39c2.31-3.08,2.26-7.64,2-10a25.79,25.79,0,0,0,7.56.79c2.88-.24,4,.71,4.84,1.46a3,3,0,0,0,1.94,1,2.49,2.49,0,0,0,1.37-.46A3.05,3.05,0,0,0,92.84,62a3.71,3.71,0,0,0,2.86-1.64,4.5,4.5,0,0,0-.07-4.5,4.3,4.3,0,0,0-3.72-2.37h0c-6.56-.17-8.83-1.53-9.59-2.28a10.34,10.34,0,0,0,1.79-1.68l.61.15c3.23.68,7.56.41,10.05-2.39,1.69-1.89,1.92-4.9.64-8.48S91,30.85,88.35,30.43l-.25,0c-1.37-3-2.28-6.06-2-6.69a1,1,0,0,0-.88-1.6,5.59,5.59,0,0,0-4.07,2.24c0-.17,0-.33,0-.51a1,1,0,0,0-1.31-1c-4.83,1.56-5.43,5.13-6,8.27A17.59,17.59,0,0,1,73,34.74c-1.25,3.11-5.75,3.52-16.62,4.49l-4.74.43a17.33,17.33,0,0,0-7.1,2.21c.62-4.27,1.2-13.51-3.64-20.61-3.26-4.77-8.37-7.66-15.21-8.61C12.08,10.78,5.09,17.76,3.1,24.92,1.18,31.85,3.72,38.78,9,41ZM70.57,71.62a1,1,0,0,0-.45,1.16,1,1,0,0,0,1,.7c4.24-.31,10,.1,12.44,2.29a3.12,3.12,0,0,1,.79,1.07H78c-3.29-2.14-8.37-2.38-11.46-2.3A20.09,20.09,0,0,0,70.41,63.7a9,9,0,0,0-.63-4.25,39.22,39.22,0,0,0,3.95,1.39C74,62.83,74.48,69.32,70.57,71.62Zm21.3-16.17a2.34,2.34,0,0,1,2,1.34A2.53,2.53,0,0,1,94,59.24a1.77,1.77,0,0,1-1.38.71,6.21,6.21,0,0,0-6.1-4.11c-7.41,0-9-.88-10.61-2.26a13.77,13.77,0,0,0,4.65-1.35C81.6,53.51,84.38,55.25,91.88,55.44Zm-7.76-31a17.87,17.87,0,0,0,1.46,5.19,8,8,0,0,1-3.52-2.76A4.34,4.34,0,0,1,84.12,24.42ZM5,25.45c1.76-6.35,8-12.52,20.4-10.81,6.25.87,10.9,3.47,13.82,7.75,5.39,7.88,3.39,19.16,3,21.08-7,5.74-8.4,15.8-8.42,15.94a1,1,0,0,0,.87,1.12h.13a1,1,0,0,0,1-.87c0-.17,2.28-16.7,16-18l4.73-.43c11.74-1.05,16.6-1.49,18.3-5.74a19.08,19.08,0,0,0,1-4c.45-2.71.82-4.92,3.42-6.22C80,29.34,84.05,31.77,88,32.4c1.46.23,4.17,3.36,5.49,7,1,2.81.91,5.17-.25,6.47-1.93,2.16-5.59,2.3-8.15,1.76-2.34-.49-4.23-1.6-4.58-2.7a1,1,0,0,0-1.9.62,5.9,5.9,0,0,0,3.42,3.18A9,9,0,0,1,80.52,50l-.11.06a12.38,12.38,0,0,1-7.07,1.64,1,1,0,0,0-.63,1.8,18.55,18.55,0,0,1,1.43,1.19c2.25,2,3.94,3.17,12.39,3.17a4.17,4.17,0,0,1,4.23,2.81,1.6,1.6,0,0,1-.33,1.83.8.8,0,0,1-.27.13,3,3,0,0,1-.63-.47c-1-.84-2.58-2.24-6.31-1.95-3.44.28-10-1-15.34-3.85a1,1,0,0,0-.28-.08,17.11,17.11,0,0,0-8.85-4.2,1,1,0,0,0-.31,2c.43.07,10.63,1.76,10,9.49-.69,8.14-4.94,11.34-5,11.37a1,1,0,0,0,.7,1.81c3.31-.4,11.64-.47,14.24,3.18-7.25-.07-25.91-.5-30.55-.61a5.57,5.57,0,0,1,3.73-4.2,1,1,0,1,0-.73-1.86,7.75,7.75,0,0,0-4.68,4.64c-2.41.37-12.06.89-17.14-13.11-3.42-9.44.32-15.09,3-19.21,2-3,3.87-5.85,1.39-8.67-2.77-3.15-6.3-1.43-10,.4-4,1.94-8.45,4.14-13.65,1.93C5.49,37.36,3.4,31.33,5,25.45Z"/><circle fill="#CF63CF"  cx="86.21" cy="37.52" r="1.19"/><path fill="#CF63CF" d="M9,35.15a1,1,0,0,0,.92-1.38c0-.05-2.1-5.2-.31-9.37a8.06,8.06,0,0,1,4.75-4.32,1,1,0,1,0-.73-1.86,10,10,0,0,0-5.86,5.39c-2.11,4.93.2,10.68.3,10.92A1,1,0,0,0,9,35.15Z"/></svg>
