<svg xmlns="http://www.w3.org/2000/svg" xmlns:xlink="http://www.w3.org/1999/xlink" viewBox="0 -10 87 87" version="1.1" x="0px" y="0px"><title>Shape_146</title><desc>Created with Sketch.</desc><g stroke="none" stroke-width="1" fill="none" fill-rule="evenodd"><g transform="translate(-316.000000, -2437.000000)" fill="#CF63CF"><g transform="translate(316.104973, 2437.000000)"><path d="M38.19,18.78 C35.6223601,20.3655461 32.8723966,21.63476 30,22.56 C27.1920194,23.5947913 24.1652972,23.8909212 21.21,23.42 C18.1648081,22.8916247 15.5982737,20.8489497 14.4,18 C13.935041,16.5128471 13.7287138,14.9569376 13.79,13.4 C13.776295,10.8127807 13.9299491,8.22738371 14.25,5.66 C14.44,4.13 16.19,3.28 17.64,3.53 C19.0796633,3.93200108 20.4006149,4.67653745 21.49,5.7 C24.8586022,8.31677376 28.5570452,10.4786818 32.49,12.13 C33.0945266,12.5069182 33.8508907,12.5447364 34.49,12.23 C35.55,11.46 34.64,9.51 35.42,8.43 C35.7514665,8.06841226 36.219474,7.86253964 36.71,7.86253964 C37.200526,7.86253964 37.6685335,8.06841226 38,8.43 C38.645813,9.20924955 39.0675302,10.1494715 39.22,11.15 L40.1,14.75 C40.2562939,15.2508871 40.3173474,15.7766256 40.28,16.3 C39.978922,17.392955 39.210285,18.2970186 38.18,18.77 L38.19,18.78 Z M17.82,13.87 C17.7563177,15.6470829 18.3072755,17.3917824 19.38,18.81 C20.5094927,19.9598409 22.0810123,20.565113 23.69,20.47 C25.2712879,20.3591566 26.8227979,19.9839549 28.28,19.36 C30.1041454,18.712207 31.8594301,17.8848114 33.52,16.89 C33.87,16.67 34.2,16.05 33.81,15.89 C28.5537087,14.0044698 23.5729604,11.4249735 19,8.22 C18.67,7.99 18.33,8.51 18.25,8.92 C17.9202047,10.5484684 17.7759516,12.2090562 17.82,13.87 L17.82,13.87 Z"/><path d="M50.09,16.5 C49.7221625,15.7055048 49.5181054,14.8450641 49.49,13.97 L49.19,10.85 C49.0986115,10.3844425 49.0986115,9.90555752 49.19,9.44 C49.400011,8.90239065 49.8249411,8.47687531 50.3622608,8.26612445 C50.8995806,8.05537359 51.5004905,8.07852769 52.02,8.33 C53.0544955,8.92553846 53.7392569,9.98245294 53.86,11.17 L65.12,1.17 C65.5392448,0.752157899 66.0304482,0.413396897 66.57,0.17 C68.5,-0.56 70.41,1.37 71.31,3.3 C73.4953649,8.29546164 73.3191199,14.0087384 70.83,18.86 C70.16,20.19 69.21,21.54 67.83,21.86 C67.2945752,21.9739997 66.7447208,22.0043598 66.2,21.95 C61.5910734,21.6821642 57.0715705,20.5633075 52.87,18.65 C51.7278336,18.246156 50.7460552,17.4852778 50.07,16.48 L50.09,16.5 Z M67.9,6.58 C67.8374797,6.32727913 67.7138604,6.09377609 67.54,5.9 C67.02,5.4 66.19,5.81 65.62,6.24 C62.3506062,8.65850934 59.317117,11.3806139 56.56,14.37 C56.2922725,14.5939759 56.1323174,14.9211569 56.12,15.27 C56.1694452,15.5154546 56.2997131,15.737262 56.49,15.9 C58.55,17.99 61.67,18.3 64.54,18.5 C65.1101967,18.6071559 65.6999081,18.504134 66.2,18.21 C66.4256085,18.017131 66.6122888,17.7829321 66.75,17.52 C68.6507955,14.1960436 69.0680639,10.2265513 67.9,6.58 L67.9,6.58 Z"/><path d="M16.64,27.51 C17.4997636,27.9506312 18.1993688,28.6502364 18.64,29.51 L21.48,34.04 C22.68,35.96 24.69,38.15 26.68,37.17 C27.99,36.52 28.48,34.73 29.76,34.01 C31.55,33.01 33.63,34.59 35.09,36.06 L38.41,39.41 C39.41,40.41 41.01,39.48 41.76,38.34 C42.51,37.2 43.02,35.73 44.22,35.12 C45.8,34.33 47.6,35.46 49.01,36.54 L53.77,40.18 C54.58,40.8 55.69,39.75 55.84,38.72 C55.99,37.69 55.68,36.59 56.01,35.6 C56.53,34.04 58.44,33.46 60.01,33.79 C61.5211124,34.2988733 62.97286,34.9694265 64.34,35.79 C66.0974191,36.5970883 68.0320443,36.9413277 69.96,36.79 C70.41,36.79 71.01,36.41 70.79,36 C69.9711113,34.6764869 69.525378,33.156156 69.5,31.6 C69.59,30.05 70.7,28.46 72.19,28.42 C73.93,28.42 75.84,30.27 77.19,29.07 C77.3107171,27.7587156 77.1539841,26.4367064 76.73,25.19 C76.3056246,23.9397779 76.2398065,22.5957036 76.54,21.31 C76.95,20.06 78.29,19.06 79.47,19.55 C80.37,19.92 81.03,18.55 80.76,17.55 C80.49,16.55 79.76,15.69 79.94,14.69 C80.15,13.16 82.25,12.69 83.49,13.52 C84.73,14.35 85.27,15.94 85.74,17.4 C86.21,18.86 86.49,20.4 85.46,21.29 C84.43,22.18 83.17,21.68 82.19,22.29 C80.98,23.07 81,24.9 81.19,26.38 L82.87,40.9 C83.0653983,41.8638455 83.0137976,42.8614577 82.72,43.8 C82.5798541,44.2905411 82.2402551,44.6997398 81.7839469,44.9278939 C81.3276388,45.1560479 80.7965204,45.182208 80.32,45 C79.19,44.46 78.32,46.27 78.58,47.53 C78.84,48.79 79.68,50.05 79.29,51.28 C78.8863462,52.2846057 77.9024031,52.9339285 76.82,52.91 C75.7737976,52.8562803 74.751068,52.5801433 73.82,52.1 C72.36,51.46 71,53.37 70.92,55 C70.84,56.63 71.35,58.41 70.68,59.91 C69.8211418,61.5119098 68.029308,62.3795771 66.24,62.06 C64.512705,61.6928142 62.8854122,60.9559269 61.47,59.9 C60.29,59.15 58.69,59.9 57.87,61.07 C57.1698569,62.3327377 56.6258643,63.6759294 56.25,65.07 C55.74,66.41 54.84,67.76 53.48,68.07 C51.7,68.45 50.13,66.87 48.94,65.44 L45.64,61.44 C44.94,60.6 43.56,61.27 43,62.22 C42.44,63.17 42.21,64.36 41.39,65.08 C40.3442128,65.8310686 38.9357872,65.8310686 37.89,65.08 C36.862031,64.3195844 36.0009544,63.3564039 35.36,62.25 L32.69,58.25 C32.12,57.4 30.77,57.84 30.15,58.65 C29.53,59.46 29.22,60.54 28.46,61.21 C27.2196647,62.1197475 25.5106369,62.0319979 24.37,61 C23.2706994,59.9435322 22.4201599,58.6557676 21.88,57.23 L19.46,52 C19.1811798,51.2275042 18.7095977,50.5390633 18.09,50 C17.4420076,49.4821361 16.5002646,49.5705627 15.96,50.2 C14.84,51.87 12.08,50.84 11.28,48.98 C10.48,47.12 10.9,44.98 10.99,42.98 C11.0892716,40.6017241 10.7083594,38.2278251 9.87,36 C8.32115403,36.0316028 6.88487616,35.193774 6.15,33.83 C5.43225537,32.4573855 5.03883922,30.9384571 5,29.39 C4.82,27.12 4.6,24.31 2.59,23.44 C1.64,23 0.36,23 0.06,22 C-0.32,20.76 1.34,20 2.58,19.89 C3.91218001,19.65864 5.27936948,19.7304174 6.58,20.1 C7.94726542,20.5479935 8.87398376,21.8212239 8.88,23.26 C8.69171207,25.6482617 9.07210674,28.047147 9.99,30.26 C12.4,29.74 14.3,26.58 16.6,27.49 L16.64,27.51 Z M75.43,40.75 C74.61,41.92 72.9,41.69 71.55,41.33 L61.44,38.65 C60.24,38.33 59.34,39.88 59.27,41.18 C59.2,42.48 59.48,43.91 58.76,44.97 C58.0503812,45.8738748 56.87002,46.2673286 55.76,45.97 C54.6695229,45.6712066 53.6496167,45.1578539 52.76,44.46 L46.98,40.46 C45.98,39.76 44.63,40.77 44.07,41.89 C43.51,43.01 43.23,44.38 42.26,45.13 C40.51,46.49 38.1,44.93 36.47,43.42 L32.32,39.6 C31.44,38.79 30.02,39.41 29.21,40.29 C28.4,41.17 27.76,42.29 26.67,42.79 C24.93,43.52 23.09,42.11 21.74,40.79 C19.3127901,38.2985081 17.060753,35.6421736 15,32.84 C14.67,32.39 13.92,32.63 13.66,33.12 C13.4561584,33.6500961 13.4246651,34.2309726 13.57,34.78 L15.08,44.34 C15.1124356,44.859773 15.2928651,45.359424 15.6,45.78 C15.7633985,45.9720464 16.0028474,46.0827074 16.255,46.0827074 C16.5071526,46.0827074 16.7466015,45.9720464 16.91,45.78 C17.6540997,44.8772756 18.9780771,44.7228116 19.91,45.43 C20.7957596,46.1572152 21.4836669,47.0962087 21.91,48.16 L25.64,55.52 C25.91,56.06 26.71,56.01 27.16,55.63 C27.5624946,55.1894071 27.9208718,54.7104544 28.23,54.2 C29.59,52.49 32.3,52.79 34.04,54.08 C35.78,55.37 36.91,57.35 38.34,58.99 C38.5309679,59.2651105 38.8214396,59.4551723 39.15,59.52 C39.75,59.52 40.07,58.83 40.38,58.28 C41.5,56.28 44.23,55.97 46.21,56.92 C48.19,57.87 49.61,59.74 50.94,61.54 C51.54,62.35 52.86,61.78 53.31,60.87 C53.76,59.96 53.75,58.87 54.15,57.95 C54.9441856,56.4458555 56.5536828,55.5547437 58.25,55.68 C59.9134546,55.85195 61.5271453,56.3479476 63,57.14 C63.7203367,57.5461408 64.545796,57.7272543 65.37,57.66 C65.7846107,57.5941249 66.1551716,57.3639228 66.3979342,57.0214204 C66.6406969,56.6789181 66.7351692,56.2530268 66.66,55.84 C66.0297757,53.7143205 66.6086558,51.4141347 68.17,49.84 C69.7563079,48.3661428 72.0656546,47.9733967 74.05,48.84 C74.82,47.74 74.45,46.22 74.31,44.84 C74.17,43.46 74.59,41.73 75.88,41.54 C77.1767328,41.142971 78.0458576,39.9253764 78,38.57 C77.9700705,37.2400134 77.6492203,35.9327195 77.06,34.74 C76.58,33.56 75.3,32.16 74.4,33.03 L75.51,37.62 C75.9047871,38.6358539 75.8576661,39.7703822 75.38,40.75 L75.43,40.75 Z"/></g></g></g></svg>
